<svg width="80" height="20" viewBox="0 0 80 20" fill="none" xmlns="http://www.w3.org/2000/svg">
<path d="M32.6633 19.9335C31.5771 19.9335 30.6157 19.7057 29.779 19.2502C28.9571 18.78 28.3112 18.1261 27.8415 17.2885C27.3865 16.4362 27.159 15.4369 27.159 14.2907V14.0262C27.159 12.88 27.3865 11.8881 27.8415 11.0505C28.2965 10.1982 28.935 9.5443 29.757 9.08876C30.579 8.61853 31.5331 8.38341 32.6192 8.38341C33.6907 8.38341 34.6228 8.62588 35.4154 9.11081C36.208 9.58104 36.8245 10.2423 37.2649 11.0946C37.7052 11.9322 37.9254 12.9094 37.9254 14.0262V14.5409C37.9254 14.7801 37.7366 14.974 37.5038 14.974H29.9772C30.0065 15.7235 30.2854 16.3333 30.8138 16.8035C31.3422 17.2738 31.9881 17.5089 32.7513 17.5089C33.5293 17.5089 34.1017 17.3399 34.4687 17.0019C34.6395 16.8446 34.7912 16.6794 34.9238 16.5061C35.1684 16.1866 35.5963 16.0305 35.9486 16.2154L37.1853 16.8645C37.3974 16.9758 37.4781 17.2461 37.3447 17.4488C37.1638 17.7238 36.939 18.0157 36.6704 18.3244C36.2888 18.7653 35.775 19.1473 35.1292 19.4706C34.4834 19.7792 33.6614 19.9335 32.6633 19.9335ZM29.9992 12.9021H35.1072C35.0485 12.2702 34.7916 11.7632 34.3366 11.3812C33.8962 10.9991 33.3165 10.8081 32.5972 10.8081C31.8486 10.8081 31.2542 10.9991 30.8138 11.3812C30.3735 11.7632 30.1019 12.2702 29.9992 12.9021Z" fill="#4054D7"/>
<path d="M43.7361 19.9335C42.3123 19.9335 41.1454 19.6249 40.2353 19.0077C39.4319 18.4629 38.9087 17.7118 38.6659 16.7545C38.6104 16.5357 38.7488 16.32 38.9623 16.2647L40.7106 15.8121C40.9435 15.7518 41.175 15.9048 41.2498 16.1392C41.3493 16.4509 41.4809 16.709 41.6444 16.9137C41.894 17.2076 42.1949 17.4207 42.5471 17.553C42.9141 17.6705 43.3104 17.7293 43.7361 17.7293C44.3819 17.7293 44.8589 17.6191 45.1672 17.3987C45.4754 17.1636 45.6295 16.877 45.6295 16.539C45.6295 16.201 45.4827 15.9439 45.1892 15.7675C44.8956 15.5765 44.4259 15.4222 43.7801 15.3047L43.1636 15.1945C42.4004 15.0475 41.7031 14.8491 41.072 14.5993C40.4408 14.3348 39.9344 13.9748 39.5528 13.5192C39.1712 13.0637 38.9804 12.4759 38.9804 11.7559C38.9804 10.6685 39.3767 9.8382 40.1693 9.2651C40.9619 8.67731 42.004 8.38341 43.2957 8.38341C44.514 8.38341 45.5268 8.65527 46.3341 9.19898C47.014 9.65686 47.496 10.2346 47.7803 10.9322C47.8697 11.1516 47.7406 11.3921 47.5188 11.4604L45.7802 11.996C45.5446 12.0686 45.3042 11.9163 45.2088 11.6835C45.0741 11.3546 44.8767 11.1069 44.6167 10.9403C44.2645 10.7052 43.8241 10.5876 43.2957 10.5876C42.7673 10.5876 42.3637 10.6831 42.0848 10.8742C41.8059 11.0505 41.6664 11.3003 41.6664 11.6236C41.6664 11.9763 41.8132 12.2408 42.1068 12.4171C42.4004 12.5788 42.7967 12.7037 43.2957 12.7919L43.9122 12.9021C44.7342 13.049 45.4754 13.2474 46.1359 13.4972C46.8111 13.7323 47.3395 14.0776 47.7212 14.5332C48.1175 14.974 48.3156 15.5765 48.3156 16.3406C48.3156 17.4868 47.8973 18.3759 47.0606 19.0077C46.2387 19.6249 45.1305 19.9335 43.7361 19.9335Z" fill="#4054D7"/>
<path d="M49.9742 19.6249C49.7413 19.6249 49.5526 19.431 49.5526 19.1918V9.12513C49.5526 8.88592 49.7413 8.69201 49.9742 8.69201H51.8611C52.094 8.69201 52.2827 8.88592 52.2827 9.12513V10.1247H52.679C52.8552 9.74268 53.1854 9.38266 53.6698 9.04468C54.1542 8.69201 54.8881 8.51567 55.8715 8.51567C56.7228 8.51567 57.4641 8.71405 58.0952 9.11081C58.7411 9.49287 59.2401 10.0292 59.5924 10.7199C59.9447 11.3958 60.1208 12.1894 60.1208 13.1004V19.1918C60.1208 19.431 59.9321 19.6249 59.6992 19.6249H57.7682C57.5354 19.6249 57.3467 19.431 57.3467 19.1918V13.3209C57.3467 12.498 57.1412 11.8808 56.7302 11.4693C56.3339 11.0579 55.7614 10.8521 55.0128 10.8521C54.1615 10.8521 53.501 11.1387 53.0313 11.7118C52.5616 12.2702 52.3267 13.0564 52.3267 14.0703V19.1918C52.3267 19.431 52.138 19.6249 51.9052 19.6249H49.9742Z" fill="#4054D7"/>
<path d="M66.9016 19.9335C65.8155 19.9335 64.854 19.7057 64.0174 19.2502C63.1954 18.78 62.5496 18.1261 62.0799 17.2885C61.6249 16.4362 61.3973 15.4369 61.3973 14.2907V14.0262C61.3973 12.88 61.6249 11.8881 62.0799 11.0505C62.5349 10.1982 63.1734 9.5443 63.9954 9.08876C64.8174 8.61853 65.7714 8.38341 66.8576 8.38341C67.9291 8.38341 68.8612 8.62588 69.6538 9.11081C70.4464 9.58104 71.0629 10.2423 71.5032 11.0946C71.9436 11.9322 72.1637 12.9094 72.1637 14.0262V14.5409C72.1637 14.7801 71.975 14.974 71.7421 14.974H64.2155C64.2449 15.7235 64.5238 16.3333 65.0522 16.8035C65.5806 17.2738 66.2264 17.5089 66.9897 17.5089C67.7676 17.5089 68.3401 17.3399 68.707 17.0019C68.9553 16.7732 69.1633 16.5277 69.331 16.2653C69.4613 16.0614 69.7182 15.9694 69.9297 16.0803L71.4236 16.8645C71.6357 16.9758 71.7165 17.2461 71.5831 17.4488C71.4021 17.7238 71.1774 18.0157 70.9088 18.3244C70.5271 18.7653 70.0134 19.1473 69.3676 19.4706C68.7217 19.7792 67.8997 19.9335 66.9016 19.9335ZM64.2376 12.9021H69.3455C69.2868 12.2702 69.03 11.7632 68.5749 11.3812C68.1346 10.9991 67.5548 10.8081 66.8356 10.8081C66.087 10.8081 65.4925 10.9991 65.0522 11.3812C64.6118 11.7632 64.3403 12.2702 64.2376 12.9021Z" fill="#4054D7"/>
<path d="M73.8605 19.6249C73.6276 19.6249 73.4389 19.431 73.4389 19.1918V9.12513C73.4389 8.88592 73.6276 8.69201 73.8605 8.69201H75.7474C75.9803 8.69201 76.169 8.88592 76.169 9.12513V9.92637H76.5653C76.7268 9.48552 76.991 9.16224 77.3579 8.95651C77.7396 8.75078 78.1799 8.64792 78.679 8.64792H79.5784C79.8112 8.64792 80 8.84184 80 9.08105V10.6835C80 10.9227 79.8112 11.1166 79.5784 11.1166H78.6349C77.9304 11.1166 77.3506 11.3077 76.8956 11.6897C76.4406 12.0571 76.2131 12.6302 76.2131 13.409V19.1918C76.2131 19.431 76.0243 19.6249 75.7915 19.6249H73.8605Z" fill="#4054D7"/>
<path d="M17.2511 19.1283L4.88949 5.76642C4.50339 5.34909 4.6557 4.36693 5.10328 3.9916C5.89268 3.32964 6.84595 2.43231 7.268 2.05974C7.40286 1.94069 7.55435 1.95375 7.68009 2.07502L18.9771 12.9698C19.2667 13.2643 19.713 13.2572 20.0115 12.9535L27.7445 5.32896C28.0235 5.05387 28.4583 5.05061 28.7248 5.32162L31.5162 8.16003C31.7921 8.44058 31.7823 8.90661 31.4944 9.19239L21.5229 19.0917C20.319 20.2862 18.4102 20.3068 17.2511 19.1283Z" fill="#FFD02F"/>
<path d="M6.47657 19.1283L1.62106 14.1806L3.97232 11.9928L2.93915 12.9534C3.50964 12.8575 14.9148 25.7013 3.26885 11.271L3.97232 11.9928L3.97149 9.82719L8.2025 12.9698C8.49209 13.2642 8.93839 13.2572 9.23694 12.9534L17.5222 5.24231C17.8037 4.9803 18.229 4.9847 18.4894 5.25231L21.0399 7.87253C21.3134 8.15358 21.3024 8.6177 21.0155 8.90248L10.7484 19.0916C9.54442 20.2861 7.63559 20.3068 6.47657 19.1283Z" fill="#4054D7"/>
<path d="M25.9669 2.8285L23.432 0.22416C23.1618 -0.0533822 22.717 -0.0463511 22.4384 0.239864L19.934 2.81279C19.6554 3.09901 19.6486 3.55603 19.9187 3.83357L22.4537 6.43791C22.7238 6.71545 23.1687 6.70842 23.4473 6.4222L25.9516 3.84927C26.2302 3.56306 26.2371 3.10604 25.9669 2.8285Z" fill="#FFD02F"/>
<path d="M17.2511 19.1283L2.54065 4.17312C2.26754 3.89546 2.27392 3.4353 2.55501 3.14838C3.04328 2.64997 3.73895 1.94028 3.97139 1.70524C4.20717 1.46683 4.93208 0.727285 5.43032 0.218694C5.70704 -0.0637691 6.14326 -0.0746255 6.41297 0.197847C7.53447 1.33083 10.8615 4.70036 18.9771 12.9698C19.6997 13.6008 20.8749 14.8835 22.6247 15.1602C23.9252 15.3658 25.3581 14.8453 26.9235 13.5988C25.8734 14.6672 24.0732 16.4981 21.5229 19.0917C20.319 20.2862 18.4102 20.3068 17.2511 19.1283Z" fill="#4054D7"/>
<path d="M6.47657 19.1283L0.20388 12.836C-0.0724555 12.5588 -0.067216 12.0957 0.215517 11.8075L3.08282 8.88433C3.36091 8.60083 3.80195 8.59227 4.07381 8.86489C5.39226 10.187 8.2025 12.9698 8.2025 12.9698C8.92509 13.6008 10.0994 14.8835 11.8492 15.1602C13.1497 15.3658 14.5826 14.8453 16.148 13.5988C15.0979 14.6672 13.2986 16.4981 10.7484 19.0916C9.54442 20.2861 7.63559 20.3068 6.47657 19.1283Z" fill="#4054D7"/>
</svg>
