<svg width="32" height="32" viewBox="0 0 32 32" fill="none" xmlns="http://www.w3.org/2000/svg">
<path d="M16.9506 22.4418L8.15412 13.1869C7.87938 12.8979 7.98775 12.2176 8.30625 11.9576C8.86798 11.4991 9.54633 10.8776 9.84665 10.6196C9.94262 10.5371 10.0504 10.5462 10.1399 10.6301L18.1788 18.1763C18.3848 18.3802 18.7024 18.3753 18.9149 18.1649L24.4176 12.8839C24.6161 12.6934 24.9255 12.6911 25.1152 12.8788L27.1016 14.8448C27.2979 15.0391 27.2909 15.3619 27.086 15.5599L19.9904 22.4165C19.1337 23.2438 17.7753 23.2581 16.9506 22.4418Z" fill="#FFD02F"/>
<path d="M9.283 22.4418L5.82785 19.0149L7.50099 17.4995L6.76579 18.1649C7.17175 18.0984 15.2876 26.9945 7.00041 16.9995L7.50099 17.4995L7.5004 15.9995L10.5112 18.1762C10.7172 18.3801 11.0348 18.3752 11.2473 18.1648L17.143 12.8239C17.3433 12.6424 17.6459 12.6454 17.8313 12.8308L19.6461 14.6457C19.8408 14.8403 19.833 15.1618 19.6288 15.359L12.3228 22.4164C11.4661 23.2437 10.1078 23.258 9.283 22.4418Z" fill="#FFD02F"/>
<path d="M23.1519 11.1519L21.3481 9.34807C21.1558 9.15584 20.8393 9.16071 20.641 9.35895L18.859 11.141C18.6607 11.3393 18.6558 11.6558 18.8481 11.8481L20.6519 13.6519C20.8442 13.8442 21.1607 13.8393 21.359 13.641L23.1411 11.859C23.3393 11.6607 23.3442 11.3442 23.1519 11.1519Z" fill="#FFD02F"/>
<path d="M16.9498 22.4418L6.48186 12.0833C6.28751 11.891 6.29206 11.5723 6.49208 11.3736C6.83953 11.0283 7.33456 10.5368 7.49997 10.374C7.66775 10.2089 8.18358 9.69662 8.53813 9.34435C8.73504 9.14871 9.04546 9.14119 9.23738 9.32991C10.0354 10.1147 12.403 12.4485 18.1779 18.1762C18.6921 18.6133 19.5284 19.5017 20.7736 19.6933C21.699 19.8358 22.7186 19.4753 23.8325 18.6119C23.0853 19.3519 21.8043 20.6201 19.9895 22.4164C19.1328 23.2438 17.7745 23.2581 16.9498 22.4418Z" fill="white"/>
<path d="M9.28276 22.4418L4.81982 18.0836C4.62318 17.8915 4.62691 17.5708 4.8281 17.3711L5.84403 16.363L6.86845 15.3465C7.06634 15.1501 7.38018 15.1442 7.57364 15.333C8.51184 16.2487 10.5109 18.1762 10.5109 18.1762C11.0251 18.6133 11.8614 19.5017 13.1066 19.6933C14.032 19.8358 15.0516 19.4753 16.1655 18.6119C15.4183 19.3519 14.1373 20.6201 12.3225 22.4164C11.4658 23.2438 10.1075 23.2581 9.28276 22.4418Z" fill="white"/>
</svg>
