<svg width="24" height="24" viewBox="0 0 24 24" fill="none" xmlns="http://www.w3.org/2000/svg">
<g clip-path="url(#clip0_722_12044)">
<path d="M22 11.0811V12.0011C21.9988 14.1575 21.3005 16.2558 20.0093 17.9829C18.7182 19.7101 16.9033 20.9736 14.8354 21.585C12.7674 22.1964 10.5573 22.123 8.53447 21.3757C6.51168 20.6284 4.78465 19.2472 3.61096 17.4382C2.43727 15.6291 1.87979 13.4891 2.02168 11.3374C2.16356 9.18565 2.99721 7.13741 4.39828 5.49816C5.79935 3.8589 7.69279 2.71647 9.79619 2.24123C11.8996 1.76599 14.1003 1.98342 16.07 2.86109" stroke="#4054D7" stroke-width="2" stroke-linecap="round" stroke-linejoin="round"/>
<path d="M22 4.00098L12 14.011L9 11.011" stroke="#4054D7" stroke-width="2" stroke-linecap="round" stroke-linejoin="round"/>
</g>
<defs>
<clipPath id="clip0_722_12044">
<rect width="24" height="24" fill="white" transform="translate(0 0.000976562)"/>
</clipPath>
</defs>
</svg>
