<svg viewBox="0 0 22 22" fill="currentColor" xmlns="http://www.w3.org/2000/svg">
    <path
        d="M15.0637 7.29358C15.0637 7.19045 14.9794 7.10608 14.8762 7.10608L13.3294 7.11311L10.9997 9.89046L8.67233 7.11545L7.12311 7.10842C7.01998 7.10842 6.93561 7.19045 6.93561 7.29592C6.93561 7.34045 6.95201 7.38264 6.98014 7.4178L10.0294 11.0506L6.98014 14.6811C6.95182 14.7154 6.9361 14.7584 6.93561 14.803C6.93561 14.9061 7.01998 14.9905 7.12311 14.9905L8.67233 14.9834L10.9997 12.2061L13.327 14.9811L14.8739 14.9881C14.977 14.9881 15.0614 14.9061 15.0614 14.8006C15.0614 14.7561 15.045 14.7139 15.0169 14.6787L11.9723 11.0483L15.0215 7.41545C15.0497 7.38264 15.0637 7.33811 15.0637 7.29358Z"
        fill="currentColor" />
    <path
        d="M11 0.5C5.20156 0.5 0.5 5.20156 0.5 11C0.5 16.7984 5.20156 21.5 11 21.5C16.7984 21.5 21.5 16.7984 21.5 11C21.5 5.20156 16.7984 0.5 11 0.5ZM11 19.7188C6.18594 19.7188 2.28125 15.8141 2.28125 11C2.28125 6.18594 6.18594 2.28125 11 2.28125C15.8141 2.28125 19.7188 6.18594 19.7188 11C19.7188 15.8141 15.8141 19.7188 11 19.7188Z"
        fill="currentColor" />
</svg>