<svg width="16" height="15" viewBox="0 0 16 15" fill="none" xmlns="http://www.w3.org/2000/svg">
<g clip-path="url(#clip0_722_12175)">
<path d="M10.667 5.33234C11.7279 5.33234 12.7453 5.75376 13.4954 6.50391C14.2456 7.25406 14.667 8.27147 14.667 9.33234V13.999H12.0003V9.33234C12.0003 8.97871 11.8598 8.63958 11.6098 8.38953C11.3598 8.13948 11.0206 7.999 10.667 7.999C10.3134 7.999 9.97423 8.13948 9.72418 8.38953C9.47413 8.63958 9.33366 8.97871 9.33366 9.33234V13.999H6.66699V9.33234C6.66699 8.27147 7.08842 7.25406 7.83857 6.50391C8.58871 5.75376 9.60613 5.33234 10.667 5.33234V5.33234Z" stroke="white" stroke-linecap="round" stroke-linejoin="round"/>
<path d="M3.99967 5.99902H1.33301V13.999H3.99967V5.99902Z" stroke="white" stroke-linecap="round" stroke-linejoin="round"/>
<path d="M2.66634 3.999C3.40272 3.999 3.99967 3.40205 3.99967 2.66567C3.99967 1.92929 3.40272 1.33234 2.66634 1.33234C1.92996 1.33234 1.33301 1.92929 1.33301 2.66567C1.33301 3.40205 1.92996 3.999 2.66634 3.999Z" stroke="white" stroke-linecap="round" stroke-linejoin="round"/>
</g>
<defs>
<clipPath id="clip0_722_12175">
<rect width="16" height="15" fill="white" transform="translate(0 -0.000976562)"/>
</clipPath>
</defs>
</svg>
