<svg width="16" height="16" viewBox="0 0 16 16" fill="none" xmlns="http://www.w3.org/2000/svg">
    <path
        d="M2.66634 3.16571H13.333C13.7902 3.16571 14.1663 3.54185 14.1663 3.99904V11.999C14.1663 12.4562 13.7902 12.8324 13.333 12.8324H2.66634C2.20915 12.8324 1.83301 12.4562 1.83301 11.999V3.99904C1.83301 3.54185 2.20915 3.16571 2.66634 3.16571Z"
        stroke="white" stroke-linecap="round" stroke-linejoin="round" />
    <mask id="path-2-inside-1_722_12159" fill="white">
        <path d="M14.6663 3.99902L7.99967 8.66569L1.33301 3.99902" />
    </mask>
    <path
        d="M15.2398 4.81826C15.6923 4.50154 15.8023 3.87801 15.4856 3.42556C15.1689 2.97311 14.5453 2.86308 14.0929 3.17979L15.2398 4.81826ZM7.99967 8.66569L7.42621 9.48492C7.77053 9.72595 8.22882 9.72595 8.57314 9.48492L7.99967 8.66569ZM1.90647 3.17979C1.45402 2.86308 0.83049 2.97311 0.513776 3.42556C0.197061 3.87801 0.307096 4.50154 0.759546 4.81826L1.90647 3.17979ZM14.0929 3.17979L7.42621 7.84646L8.57314 9.48492L15.2398 4.81826L14.0929 3.17979ZM8.57314 7.84646L1.90647 3.17979L0.759546 4.81826L7.42621 9.48492L8.57314 7.84646Z"
        fill="white" mask="url(#path-2-inside-1_722_12159)" />
</svg>