<svg width="16" height="16" viewBox="0 0 16 16" fill="none" xmlns="http://www.w3.org/2000/svg">
<g clip-path="url(#clip0_722_12151)">
<path d="M13.5 6.66571C13.5 8.79807 12.1171 10.8428 10.637 12.4052C9.90719 13.1755 9.17567 13.8057 8.62604 14.2433C8.37117 14.4463 8.1563 14.6071 8 14.7207C7.84371 14.6071 7.62883 14.4463 7.37396 14.2433C6.82433 13.8057 6.09281 13.1755 5.36298 12.4052C3.88287 10.8428 2.5 8.79807 2.5 6.66571C2.5 5.20702 3.07946 3.80807 4.11091 2.77662C5.14236 1.74517 6.54131 1.16571 8 1.16571C9.45869 1.16571 10.8576 1.74517 11.8891 2.77662C12.9205 3.80807 13.5 5.20702 13.5 6.66571Z" stroke="white" stroke-linecap="round" stroke-linejoin="round"/>
<path d="M9.5 6.66571C9.5 7.49414 8.82843 8.16571 8 8.16571C7.17157 8.16571 6.5 7.49414 6.5 6.66571C6.5 5.83728 7.17157 5.16571 8 5.16571C8.82843 5.16571 9.5 5.83728 9.5 6.66571Z" stroke="white" stroke-linecap="round" stroke-linejoin="round"/>
</g>
<defs>
<clipPath id="clip0_722_12151">
<rect width="16" height="16" fill="white" transform="translate(0 -0.000976562)"/>
</clipPath>
</defs>
</svg>
