<svg width="16" height="16" viewBox="0 0 16 16" fill="none" xmlns="http://www.w3.org/2000/svg">
<g clip-path="url(#clip0_722_12164)">
<path d="M14.6669 11.279V13.279C14.6677 13.4647 14.6297 13.6485 14.5553 13.8186C14.4809 13.9887 14.3718 14.1414 14.235 14.2669C14.0982 14.3924 13.9367 14.488 13.7608 14.5475C13.5849 14.607 13.3985 14.6291 13.2136 14.6123C11.1622 14.3894 9.19161 13.6884 7.46028 12.5657C5.8495 11.5421 4.48384 10.1765 3.46028 8.56567C2.3336 6.82648 1.63244 4.84634 1.41361 2.78567C1.39695 2.60132 1.41886 2.41551 1.47795 2.24009C1.53703 2.06467 1.63199 1.90347 1.75679 1.76675C1.88159 1.63004 2.03348 1.52081 2.20281 1.44602C2.37213 1.37123 2.55517 1.33251 2.74028 1.33234H4.74028C5.06382 1.32916 5.37748 1.44373 5.62279 1.6547C5.8681 1.86566 6.02833 2.15864 6.07361 2.47901C6.15803 3.11905 6.31458 3.74749 6.54028 4.35234C6.62998 4.59096 6.64939 4.85028 6.59622 5.09959C6.54305 5.3489 6.41952 5.57775 6.24028 5.75901L5.39361 6.60567C6.34265 8.2747 7.72458 9.65664 9.39361 10.6057L10.2403 9.75901C10.4215 9.57977 10.6504 9.45624 10.8997 9.40307C11.149 9.3499 11.4083 9.36931 11.6469 9.45901C12.2518 9.68471 12.8802 9.84126 13.5203 9.92567C13.8441 9.97136 14.1399 10.1345 14.3513 10.384C14.5627 10.6335 14.6751 10.9521 14.6669 11.279Z" stroke="white" stroke-linecap="round" stroke-linejoin="round"/>
</g>
<defs>
<clipPath id="clip0_722_12164">
<rect width="16" height="16" fill="white" transform="translate(0 -0.000976562)"/>
</clipPath>
</defs>
</svg>
