<svg width="16" height="16" viewBox="0 0 16 16" fill="none" xmlns="http://www.w3.org/2000/svg">
<path d="M15.3337 1.99901C14.6952 2.44933 13.9884 2.79375 13.2403 3.01901C12.8388 2.55735 12.3052 2.23014 11.7117 2.08163C11.1181 1.93312 10.4933 1.97048 9.92171 2.18865C9.3501 2.40682 8.85929 2.79528 8.51565 3.30149C8.17201 3.8077 7.99212 4.40724 8.00033 5.01901V5.68568C6.82875 5.71606 5.66784 5.45622 4.621 4.92931C3.57415 4.4024 2.67387 3.62477 2.00033 2.66568C2.00033 2.66568 -0.666341 8.66568 5.33366 11.3323C3.96068 12.2643 2.3251 12.7316 0.666992 12.6657C6.66699 15.999 14.0003 12.6657 14.0003 4.99901C13.9997 4.81332 13.9819 4.62808 13.947 4.44568C14.6274 3.77468 15.1075 2.92749 15.3337 1.99901V1.99901Z" stroke="white" stroke-linecap="round" stroke-linejoin="round"/>
</svg>
